inDegrees=yes
name=ik_MT_01200627-Y006-000_orientations_updatedTime
DataType=double
version=3
OpenSimVersion=4.5-2024-07-10-f38669b70
endheader
time	pelvis_tilt	pelvis_list	pelvis_rotation	pelvis_tx	pelvis_ty	pelvis_tz	hip_flexion_r	hip_adduction_r	hip_rotation_r	knee_angle_r	knee_angle_r_beta	ankle_angle_r	subtalar_angle_r	mtp_angle_r	hip_flexion_l	hip_adduction_l	hip_rotation_l	knee_angle_l	knee_angle_l_beta	ankle_angle_l	subtalar_angle_l	mtp_angle_l	lumbar_extension	lumbar_bending	lumbar_rotation	arm_flex_r	arm_add_r	arm_rot_r	elbow_flex_r	pro_sup_r	wrist_flex_r	wrist_dev_r	arm_flex_l	arm_add_l	arm_rot_l	elbow_flex_l	pro_sup_l	wrist_flex_l	wrist_dev_l
1748433505.005953	0.0007211488411455614	-0.001296689228736387	-167.1144181449063	0	0.9399999943917833	0	79.99999999525214	-7.000000001125469	0	79.99999999792263	1.396263401559207	0	0	0	79.99999999525214	-7.000000004501878	0	79.99999999802388	1.396263401560974	0	0	0	0.0285108723570171	-0.002852780006532107	-0.003926439941636685	-0.3607506742857685	-0.09519532824954785	-0.3947027207262478	0.69314714808356	0.5958144624614957	-0.3283312180208432	-0.06652426203421426	-0.362841408552089	-0.09848220361760082	-0.4091374063159396	0.6919132867585064	0.6114684354187084	-0.3366573426287475	-0.07126149801285857
1748433505.015953	0.04096077994669933	0.007103020679635029	-167.1132858602952	0	0.9399999943917833	0	79.99999999525214	-7.000000001125469	0	79.99999999792263	1.396263401559207	0	0	0	79.99999999525214	-7.000000004501878	0	79.99999999802388	1.396263401560974	0	0	0	0.1283493561909305	0.004926591014928608	-0.007883190763955895	-0.7142441502306993	-0.1691981678778167	-0.829651482258762	1.273476163928404	1.109942151143313	-0.5341148962700539	-0.1260263021878719	-0.7340456956103806	-0.1683073979392192	-0.7803877172185831	1.267125847893585	1.145931641124638	-0.5754671932241335	-0.1563924835119353
1748433505.025953	0.02071609036041296	-0.000126175287280248	-167.1116163434599	0	0.9399999943917833	0	79.99999999525214	-7.000000001125469	0	79.99999999792263	1.396263401559207	0	0	0	79.99999999525214	-7.000000004501878	0	79.99999999802388	1.396263401560974	0	0	0	0.04241663718266385	0.006369822612457582	-0.02301789455980243	-0.3388069788856246	-0.09795716266173471	-0.5568819278995648	0.7003433349035811	0.5776746013521588	-0.2398515612455878	-0.06401601236160975	-0.3827115509211516	-0.08055927790738596	-0.4431287091843117	0.6762503510727461	0.6389143905138277	-0.3170864917581808	-0.1171536100943107
1748433505.035953	-0.003600162744505532	-0.009787273443522263	-167.0983191659541	0	0.9399999943917833	0	79.99999999525214	-7.000000001125469	0	79.99999999792263	1.396263401559207	0	0	0	79.99999999525214	-7.000000004501878	0	79.99999999802388	1.396263401560974	0	0	0	0.000299439970714018	0.01316135551371665	-0.03773164431942001	-0.2980803434967988	-0.1123003921909951	-0.6757352363193453	0.7212071508605896	0.5712064263772687	-0.2261951186302337	-0.04285006666435622	-0.3767295821432403	-0.06724716926599471	-0.4786473667271687	0.6804377129098533	0.6811634002994358	-0.3350396576028552	-0.1458211377792182
1748433505.045953	0.006257654581597158	-0.007472394389990444	-167.1173565469353	0	0.9399999943917833	0	79.99999999525214	-7.000000001125469	0	79.99999999792263	1.396263401559207	0	0	0	79.99999999525214	-7.000000004501878	0	79.99999999802388	1.396263401560974	0	0	0	0.03991543547188935	0.01941224565855475	-0.04272686931401598	-0.315109739917852	-0.1457575243600701	-0.733295426058768	0.7097312852630842	0.5461726027873237	-0.1550778115643021	0.02952984373985211	-0.438122593464081	-0.07329665307310988	-0.5058280977504019	0.6784490286372036	0.6953076333896797	-0.3056293359035717	-0.1383026422251448
1748433505.055953	-0.0004983571791823851	-0.01131706986236158	-167.1160338160346	0	0.9399999943917833	0	79.99999999525214	-7.000000001125469	0	79.99999999792263	1.396263401559207	0	0	0	79.99999999525214	-7.000000004501878	0	79.99999999802388	1.396263401560974	0	0	0	-0.008340334006486734	0.02733181362246682	-0.05331549040681374	-0.2593347404902063	-0.1675250407632556	-0.8021867909232071	0.7408691285288413	0.5256769426152555	-0.1642214241671591	0.04904193206600945	-0.4005861793199703	-0.05532412373972803	-0.536561389378041	0.6600064006351417	0.7151042503260521	-0.3252775380693316	-0.1797660258942675
1748433505.065953	0.006363494688807424	-0.006151884671092562	-167.1168794837871	0	0.9399999943917833	0	79.99999999525214	-7.000000001125469	0	79.99999999792263	1.396263401559207	0	0	0	79.99999999525214	-7.000000004501878	0	79.99999999802388	1.396263401560974	0	0	0	0.03058953251093751	0.04374094975821871	-0.06168103049358372	-0.2885357829706326	-0.2212513644497525	-0.8568654477696334	0.7449529375529692	0.5063633324274247	-0.1266825258726581	0.1090060870509931	-0.4570283042823371	-0.04802128437916911	-0.5604528599823286	0.6513933093301013	0.7163354127715557	-0.3193803075786188	-0.1842057746656405
1748433505.075953	0.004501620293900405	-0.009893568669945568	-167.1207094838041	0	0.9399999943917833	0	79.99999999525214	-7.000000001125469	0	79.99999999792263	1.396263401559207	0	0	0	79.99999999525214	-7.000000004501878	0	79.99999999802388	1.396263401560974	0	0	0	0.01184104827230799	0.05631814037648462	-0.0694807426386732	-0.2717239787961426	-0.271697678696123	-0.8975839542538232	0.7593338598499834	0.4988641309247208	-0.1040220449301127	0.1574275489562227	-0.4533925184889787	-0.02504670465286567	-0.5972712789789612	0.6461184816063631	0.7168297486144434	-0.3317534419880961	-0.1990817247794256
1748433505.085953	0.01092743531786914	-0.007496057399124239	-167.1257440017461	0	0.9399999943917833	0	79.99999999525214	-7.000000001125469	0	79.99999999792263	1.396263401559207	0	0	0	79.99999999525214	-7.000000004501878	0	79.99999999802388	1.396263401560974	0	0	0	0.0186930048287983	0.07186667313773132	-0.05856548418655481	-0.5787155656669144	-0.4143603262630406	-1.300193095029488	1.366457412122049	1.013711298278105	-0.3525330324326629	0.1580679730045316	-0.7678490514749042	-0.08283348942389537	-0.9662150918917805	1.239168392222955	1.242782715638975	-0.6079283810323102	-0.2702157988270428
1748433505.095953	0.004074125228203203	-0.00774463456001597	-167.1297584921389	0	0.9399999943917833	0	79.99999999525214	-7.000000001125469	0	79.99999999792263	1.396263401559207	0	0	0	79.99999999525214	-7.000000004501878	0	79.99999999802388	1.396263401560974	0	0	0	-0.003687851149031366	0.09501662350893374	-0.06263021689255412	-0.2803509386425775	-0.431486205410904	-0.9846261532615659	0.799001866608028	0.5010990984712924	-0.06201140023768196	0.2972766081846033	-0.4609126183503925	0.02142104057708875	-0.6487351489649941	0.6357886733286267	0.7164880883200597	-0.3199883384248038	-0.2163923777061889
1748433505.105953	0.0001343698841079818	-0.009044557257526517	-167.1332337681097	0	0.9399999943917833	0	79.99999999525214	-7.000000001125469	0	79.99999999792263	1.396263401559207	0	0	0	79.99999999525214	-7.000000004501878	0	79.99999999802388	1.396263401560974	0	0	0	-0.02375457637509395	0.1172995958994109	-0.03938166801973233	-0.2859346081890696	-0.5423198988709114	-1.051533526496894	0.8192435782434216	0.5050759454194763	-0.03630368270309568	0.3836191652571411	-0.4571646119350134	0.04589905607722652	-0.6629150079695313	0.6306216649846144	0.7199314332686254	-0.2998478242743293	-0.2186617884819168
1748433505.115953	0.004949360122818142	-0.008646295234858034	-167.1344716339562	0	0.9399999943917833	0	79.99999999525214	-7.000000001125469	0	79.99999999792263	1.396263401559207	0	0	0	79.99999999525214	-7.000000004501878	0	79.99999999802388	1.396263401560974	0	0	0	-0.0239720972611965	0.1412179287350273	-0.01014615302367388	-0.3155964563603479	-0.6783504094395715	-1.168575685709922	0.8652630558466272	0.5279050334400451	0.0277999698925205	0.494321321500844	-0.4540851878909707	0.06884317381177796	-0.6988051024063567	0.638516060137177	0.7231591385516125	-0.2806724152860907	-0.2271327498455396
1748433505.125953	0.004871316945885159	0.0004960928639333865	-167.1388473822864	0	0.9399999943917833	0	79.99999999525214	-7.000000001125469	0	79.99999999792263	1.396263401559207	0	0	0	79.99999999525214	-7.000000004501878	0	79.99999999802388	1.396263401560974	0	0	0	-0.03531013708613197	0.1424218934479896	-0.003378082521940866	-0.3179301519087581	-0.758630173819554	-1.292992492916876	0.9038442113806918	0.5555327775896753	0.09298279814013242	0.549954056824571	-0.4415044990033891	0.04562984752448401	-0.7676321198424483	0.6510998770572209	0.7238746988227797	-0.2524979106965745	-0.2355107384396407
1748433505.135953	0.004884781291607534	-0.01914909247984714	-167.1266802182004	0	0.9399999943917833	0	79.99999999525214	-7.000000001125469	0	79.99999999792263	1.396263401559207	0	0	0	79.99999999525214	-7.000000004501878	0	79.99999999802388	1.396263401560974	0	0	0	-0.06021457226725054	0.1703450281076042	0.04052322922947237	-0.3532514688143702	-0.9665721876643906	-1.51142062351509	0.9564097659185657	0.6081217819701008	0.2528066237847049	0.7217893498657172	-0.4213852495896366	0.09687788235145678	-0.7875379112506617	0.6447396780138538	0.7281814183499361	-0.2012701362963569	-0.2341143395084501
1748433505.145953	-0.01285527647360388	0.007124038006617412	-167.138879476862	0	0.9399999943917833	0	79.99999999525214	-7.000000001125469	0	79.99999999792263	1.396263401559207	0	0	0	79.99999999525214	-7.000000004501878	0	79.99999999802388	1.396263401560974	0	0	0	-0.06550535319246226	0.1801917330705154	0.04633357216337959	-0.352329217616329	-1.034012570255147	-1.658662645842213	0.9664855491914316	0.5952557472646148	0.2885711780711339	0.7251583373753585	-0.4102314818298182	0.06832510698502149	-0.8951843939987654	0.6514406469932748	0.700608283803133	-0.1795739471244084	-0.2432723826890252
1748433505.155953	0.006464173402079798	-0.01051516361882686	-167.1148361196509	0	0.9399999943917833	0	79.99999999525214	-7.000000001125469	0	79.99999999792263	1.396263401559207	0	0	0	79.99999999525214	-7.000000004501878	0	79.99999999802388	1.396263401560974	0	0	0	-0.07535921718804633	0.2347845102349391	0.1158791528026377	-0.3694224890813145	-1.262098411096586	-1.980741758136231	0.9964457558854156	0.6723321631327992	0.4089554563831561	0.792287739686756	-0.3817131080804518	0.132293304688765	-0.9113293671126221	0.6565678505113407	0.7118493273149913	-0.1163289722213518	-0.2222071304031596
1748433505.165953	0.01493086844736559	-6.777793334000293e-05	-167.1043347250113	0	0.9399999943917833	0	79.99999999525214	-7.000000001125469	0	79.99999999792263	1.396263401559207	0	0	0	79.99999999525214	-7.000000004501878	0	79.99999999802388	1.396263401560974	0	0	0	-0.08538091929491856	0.2542157849344852	0.1555015627381757	-0.3617833261845634	-1.406832412234548	-2.222622332594112	1.009687504106925	0.7285473017215093	0.4152360797130169	0.7777891085051688	-0.3620322102515186	0.1187067486894956	-0.9801341645164627	0.6689860928165648	0.7296619060450962	-0.07144960907302741	-0.2058288856429007
1748433505.175953	0.009086946150396786	0.003434319553058063	-167.1016796971075	0	0.9399999943917833	0	79.99999999525214	-7.000000001125469	0	79.99999999792263	1.396263401559207	0	0	0	79.99999999525214	-7.000000004501878	0	79.99999999802388	1.396263401560974	0	0	0	-0.1016256876270807	0.271680824168757	0.2051803563048278	-0.3457198927132943	-1.560102270591951	-2.49106202241473	1.015195289497481	0.8438680274306639	0.3753789674280857	0.7525417620231762	-0.3497257776610427	0.1063732764905312	-1.017512607847009	0.6613555866436212	0.7374379581598172	-0.04734490375587617	-0.2088107622541585
